:FULLY-SPECIFIED
:DEGREES
110
root -0.567874014377594 -0.567874014377594 -0.567874014377594 -0.5678755879732001 -0.5678755879732001 -0.5678755879732001
lhipjoint -9.671654586443837e-08 -1.5341245206083327e-07 1.0672170578144923e-06
lfemur -24.601028286517995 -2.616289447421398 -15.767122868759255
ltibia 34.35714926110644 -2.3732902099856518e-06 -6.561485325636734e-07
lfoot -20.551697703109866 1.968325092835249e-06 10.763380924321273
ltoes -59.55911978891696 -2.876834609377457e-07 1.8122556308379582e-06
rhipjoint 1.1005675908711953e-07 6.870210827458292e-07 -1.494104084495789e-06
rfemur -19.066029105794545 1.711098670706477 14.01381587013792
rtibia 26.02802214376832 1.830757400864343e-06 -2.018421526178669e-06
rfoot -24.616601117825624 -6.87195631586748e-07 -9.275536911755301
rtoes -6.38102184292755 1.2165909687629905e-06 -6.932309503725433e-07
lowerback 17.708914913942614 2.0439612164395844 -0.17462053627926666
upperback 1.1373493334904774 2.5753772546232563 1.1310250052058688
thorax -9.755256101884793 1.3393864358611605 0.8222321528295923
lowerneck -11.457395592112624 -2.029057957114028 -1.9248847656666397
upperneck 23.5797988923852 -3.0151462414105206 2.3060364286666197
head 9.370881229926802 -1.331763944747426 0.7745436119620046
lclavicle -1.4085775951116125e-07 5.4855408257763046e-08 -1.0938974842598547e-06
lhumerus -13.494248502616928 5.3690354022890725 80.42881743940428
lradius 62.37761784049023 -1.4322482499396872e-06 4.193079633419811e-06
lwrist -7.55677452099649e-07 -40.13686558205499 1.822113314795499e-07
lhand -4.562975323145072 2.6246558075710764e-07 -26.656099019086014
lfingers 7.125022823272814 9.845282338726802e-08 3.18924141240953e-07
lthumb 21.213298854421275 -1.2803152392500461e-07 2.20318914769186
rclavicle 1.398304276268298e-07 4.3880174074018323e-07 -1.3740421654916584e-06
rhumerus -18.701840004154878 -5.015356681121588 -67.20869943289946
rradius 78.08509266722777 -3.3102268627154073e-06 -1.3090909845862315e-05
rwrist 4.414472497909122e-07 43.00109516521608 9.868214901313278e-07
rhand -6.972260092956778 2.0321462048512455e-07 -36.68780446630613
rfingers 7.125022396385991 5.1024341088409163e-08 -3.1892353057445414e-07
rthumb 18.897492480477187 1.5447771905696147e-06 -65.78980959509936
111
root -0.567874014377594 -0.567874014377594 -0.567874014377594 -0.5678755879732001 -0.5678755879732001 -0.5678755879732001
lhipjoint -9.671654586443837e-08 -1.5341245206083327e-07 1.0672170578144923e-06
lfemur -29.938313981337085 0.04193905571095757 -16.19496250327427
ltibia 39.17244628634377 -1.9380975082536186e-06 -4.7096635945613685e-09
lfoot -20.563887883231047 -1.5576085150432616e-06 8.091234189867512
ltoes -59.13915877760955 6.036373203283361e-07 2.410175891404145e-06
rhipjoint 1.1005675908711953e-07 6.870210827458292e-07 -1.494104084495789e-06
rfemur -26.61404042172437 0.3789236606288071 13.576870739685633
rtibia 35.953299583341305 1.2649770270209068e-06 -3.9476368902066454e-06
rfoot -26.77141310284334 1.5470332979495827e-06 -6.490690775335859
rtoes -9.372754409306678 -7.345633016800973e-07 -7.51222589101729e-07
lowerback 20.750726000429452 2.007119389499947 -0.2759669632251952
upperback 1.5057284360208278 2.5284128738902485 0.9456401174750885
thorax -10.68424549882386 1.2810294063142773 0.6379673094009883
lowerneck -11.457395592112624 -2.029057957114028 -1.9248847656666397
upperneck 23.5797988923852 -3.0151462414105206 2.3060364286666197
head 9.370881229926802 -1.331763944747426 0.7745436119620046
lclavicle -1.4085775951116125e-07 5.4855408257763046e-08 -1.0938974842598547e-06
lhumerus -5.986884496211494 -1.0792801323840868 80.7505603304469
lradius 64.62507792650459 -1.5561997074304356e-06 4.436899225079058e-06
lwrist -6.538579225265207e-07 -36.687285371929214 1.5766113878208203e-07
lhand -4.562975323145072 2.6246558075710764e-07 -26.656099019086014
lfingers 7.125022823272814 9.845282338726802e-08 3.18924141240953e-07
lthumb 21.213298854421275 -1.2803152392500461e-07 2.20318914769186
rclavicle 1.398304276268298e-07 4.3880174074018323e-07 -1.3740421654916584e-06
rhumerus -12.515149422832062 0.6288133618092903 -71.66485145119918
rradius 80.93186087177571 -2.8309595099850253e-06 -1.3389613699771396e-05
rwrist 4.547244625864629e-07 43.708426140568015 1.016505785084489e-06
rhand -6.972260092956778 2.0321462048512455e-07 -36.68780446630613
rfingers 7.125022396385991 5.1024341088409163e-08 -3.1892353057445414e-07
rthumb 18.897492480477187 1.5447771905696147e-06 -65.78980959509936
112
root -0.567874014377594 -0.567874014377594 -0.567874014377594 -0.5678755879732001 -0.5678755879732001 -0.5678755879732001
lhipjoint -9.671654586443837e-08 -1.5341245206083327e-07 1.0672170578144923e-06
lfemur -35.31544870732132 3.476675357119799 -16.884688666040496
ltibia 44.13437722777752 -2.6282589434697375e-06 -2.3425207606640498e-07
lfoot -20.206849989652387 7.223472237040325e-08 4.810518027252436
ltoes -58.60842575834288 9.385829587217564e-08 1.5413861595015507e-06
rhipjoint 1.1005675908711953e-07 6.870210827458292e-07 -1.494104084495789e-06
rfemur -33.7226827438202 -0.6025057676430755 12.847842814661506
rtibia 45.03540553780184 2.9927686264049223e-06 -3.801853698271332e-06
rfoot -28.619269556371517 -9.323863730913921e-07 -4.271644703155579
rtoes -12.886719397643573 6.42585018957916e-07 -1.4132335200542759e-06
lowerback 24.93667573516347 1.8441098813250112 -0.32891448294942827
upperback 1.8988604642684217 2.382383429435376 0.9346434061896622
thorax -12.025143967812532 1.1725110406159973 0.6248257586336193
lowerneck -11.457395592112624 -2.029057957114028 -1.9248847656666397
upperneck 23.5797988923852 -3.0151462414105206 2.3060364286666197
head 9.370881229926802 -1.331763944747426 0.7745436119620046
lclavicle -1.4085775951116125e-07 5.4855408257763046e-08 -1.0938974842598547e-06
lhumerus 3.868368136443224 -7.858940309969024 78.58590262774061
lradius 64.41170964702256 -2.6329252497428813e-07 5.220857406073157e-06
lwrist -5.814350130967246e-07 -33.93018730589977 1.401985068590062e-07
lhand -4.562975323145072 2.6246558075710764e-07 -26.656099019086014
lfingers 7.125022823272814 9.845282338726802e-08 3.18924141240953e-07
lthumb 21.213298854421275 -1.2803152392500461e-07 2.20318914769186
rclavicle 1.398304276268298e-07 4.3880174074018323e-07 -1.3740421654916584e-06
rhumerus -3.261629198979475 4.487584548860117 -73.67520152017654
rradius 80.55059288211643 -2.6534405907714445e-06 -1.314719456994949e-05
rwrist 4.7374728380298385e-07 44.6839683993426 1.0590264933987876e-06
rhand -6.972260092956778 2.0321462048512455e-07 -36.68780446630613
rfingers 7.125022396385991 5.1024341088409163e-08 -3.1892353057445414e-07
rthumb 18.897492480477187 1.5447771905696147e-06 -65.78980959509936
113
root -0.567874014377594 -0.567874014377594 -0.567874014377594 -0.5678755879732001 -0.5678755879732001 -0.5678755879732001
lhipjoint -9.671654586443837e-08 -1.5341245206083327e-07 1.0672170578144923e-06
lfemur -38.939714420564755 6.689529108019155 -17.681894685586045
ltibia 47.66036676414822 -3.1431711032929685e-06 5.888880959373292e-08
lfoot -19.447589086040843 1.2143337418277747e-06 1.838223325477518
ltoes -57.99693258232998 -1.2625275419163059e-06 1.1429969027661672e-06
rhipjoint 1.1005675908711953e-07 6.870210827458292e-07 -1.494104084495789e-06
rfemur -38.0264600719261 -0.8621485253910873 11.933201083847697
rtibia 50.40091186672414 2.769477606881714e-06 -3.909925384126219e-06
rfoot -29.541432179235155 2.341313676551341e-07 -3.388376592520578
rtoes -15.561068014331017 -4.856687660822327e-07 -1.7100591673684203e-06
lowerback 28.70674549661916 1.652290848674373 -0.5405275105364691
upperback 2.3384650996287824 2.163584936119776 1.1387022445546688
thorax -13.076995661315435 1.0594986238872606 0.9659253524232032
lowerneck -11.457395592112624 -2.029057957114028 -1.9248847656666397
upperneck 23.5797988923852 -3.0151462414105206 2.3060364286666197
head 9.370881229926802 -1.331763944747426 0.7745436119620046
lclavicle -1.4085775951116125e-07 5.4855408257763046e-08 -1.0938974842598547e-06
lhumerus 14.110685028041626 -14.005495845955199 75.42303326840447
lradius 61.58354004758455 3.163863130495196e-07 5.122075178998639e-06
lwrist -5.368323900212525e-07 -32.09051683409186 1.29442456148358e-07
lhand -4.562975323145072 2.6246558075710764e-07 -26.656099019086014
lfingers 7.125022823272814 9.845282338726802e-08 3.18924141240953e-07
lthumb 21.213298854421275 -1.2803152392500461e-07 2.20318914769186
rclavicle 1.398304276268298e-07 4.3880174074018323e-07 -1.3740421654916584e-06
rhumerus 7.687516222180044 6.297883072802861 -73.16114782286304
rradius 76.67741800004481 -5.94627546804436e-07 -1.3369017140098486e-05
rwrist 4.745193698130185e-07 44.7226409304232 1.060751728035763e-06
rhand -6.972260092956778 2.0321462048512455e-07 -36.68780446630613
rfingers 7.125022396385991 5.1024341088409163e-08 -3.1892353057445414e-07
rthumb 18.897492480477187 1.5447771905696147e-06 -65.78980959509936
